<svg xmlns="http://www.w3.org/2000/svg" width="140" height="140" viewBox="0 0 140 140">
  <g id="Component_1_9" data-name="Component 1 – 9">
    <rect id="Rectangle_1" data-name="Rectangle 1" width="140" height="140" rx="15" fill="#fff" opacity="0.22"/>
  </g>
  <path id="Icon_awesome-instagram" data-name="Icon awesome-instagram" d="M47.005,25.137a24.1,24.1,0,1,0,24.1,24.1A24.06,24.06,0,0,0,47.005,25.137Zm0,39.769A15.668,15.668,0,1,1,62.67,49.238,15.7,15.7,0,0,1,47.005,64.906Zm30.7-40.755a5.62,5.62,0,1,1-5.62-5.621A5.608,5.608,0,0,1,77.706,24.151Zm15.959,5.705c-.356-7.53-2.076-14.2-7.591-19.7-5.494-5.5-12.163-7.215-19.691-7.593-7.759-.44-31.015-.44-38.774,0C20.1,2.925,13.432,4.645,7.916,10.14S.7,22.306.325,29.836c-.44,7.761-.44,31.022,0,38.783.356,7.53,2.076,14.2,7.591,19.7s12.163,7.215,19.691,7.593c7.759.44,31.015.44,38.774,0,7.528-.357,14.2-2.077,19.691-7.593,5.494-5.5,7.214-12.166,7.591-19.7.44-7.761.44-31,0-38.762ZM83.641,76.946a15.861,15.861,0,0,1-8.933,8.935c-6.186,2.454-20.866,1.888-27.7,1.888s-21.537.545-27.7-1.888a15.861,15.861,0,0,1-8.933-8.935c-2.454-6.188-1.887-20.87-1.887-27.708S7.937,27.7,10.37,21.53A15.861,15.861,0,0,1,19.3,12.594c6.186-2.454,20.866-1.888,27.7-1.888s21.537-.545,27.7,1.888a15.861,15.861,0,0,1,8.933,8.935c2.454,6.188,1.887,20.87,1.887,27.708S86.094,70.779,83.641,76.946Z" transform="translate(23.397 18.039)" opacity="0.6"/>
</svg>
