<svg xmlns="http://www.w3.org/2000/svg" width="140" height="140" viewBox="0 0 140 140">
  <g id="Component_1_3" data-name="Component 1 – 3">
    <rect id="Rectangle_1" data-name="Rectangle 1" width="140" height="140" rx="15" fill="#fff" opacity="0.22"/>
  </g>
  <path id="Icon_material-settings" data-name="Icon material-settings" d="M91.8,60.887a37.653,37.653,0,0,0,.338-4.735,37.653,37.653,0,0,0-.338-4.735L102,43.444a2.438,2.438,0,0,0,.58-3.092L92.916,23.633a2.429,2.429,0,0,0-2.947-1.063L77.937,27.4a35.3,35.3,0,0,0-8.166-4.735l-1.836-12.8a2.356,2.356,0,0,0-2.368-2.029H46.24a2.356,2.356,0,0,0-2.368,2.029l-1.836,12.8A37.122,37.122,0,0,0,33.871,27.4L21.84,22.57a2.357,2.357,0,0,0-2.947,1.063L9.228,40.352a2.382,2.382,0,0,0,.58,3.092L20,51.417a38.319,38.319,0,0,0-.338,4.735A38.319,38.319,0,0,0,20,60.887L9.808,68.86a2.438,2.438,0,0,0-.58,3.092L18.892,88.67a2.429,2.429,0,0,0,2.947,1.063L33.871,84.9a35.3,35.3,0,0,0,8.166,4.735l1.836,12.8a2.356,2.356,0,0,0,2.368,2.029H65.568a2.356,2.356,0,0,0,2.368-2.029l1.836-12.8A37.122,37.122,0,0,0,77.937,84.9l12.031,4.832a2.357,2.357,0,0,0,2.947-1.063l9.664-16.718A2.438,2.438,0,0,0,102,68.86L91.8,60.887ZM55.9,73.063A16.911,16.911,0,1,1,72.816,56.152,16.93,16.93,0,0,1,55.9,73.063Z" transform="translate(14.107 16.245)" opacity="0.6"/>
</svg>
